<?xml version="1.0" encoding="utf-8"?>
<!-- Generator: Adobe Illustrator 24.2.1, SVG Export Plug-In . SVG Version: 6.00 Build 0)  -->
<svg version="1.1" id="Layer_1" xmlns="http://www.w3.org/2000/svg" xmlns:xlink="http://www.w3.org/1999/xlink" x="0px" y="0px"
	 viewBox="0 0 400 400" style="enable-background:new 0 0 400 400;" xml:space="preserve">
<path d="M214,176.6c3.4,0,6.1,2.7,6.1,6.1v33.7c0,4.3-3.5,7.7-7.7,7.7h-32.1c-4.3,0-7.7-3.5-7.7-7.7v-32.1c0-4.3,3.5-7.7,7.7-7.7
	H214 M214,170.4h-33.7c-7.7,0-14,6.3-14,14v32.1c0,7.7,6.3,14,14,14h32.1c7.7,0,14-6.3,14-14v-33.7
	C226.4,175.9,220.8,170.4,214,170.4L214,170.4z"/>
<path d="M292.7,184.3L292.7,184.3c0-7.7-6.3-14-14-14h-32.1c-7.7,0-14,6.3-14,14v3.2v0.8v2.5c0,0.4,0,0.9,0.1,1.3
	c0,0.1,0,0.2,0.1,0.4c0,0.3,0.1,0.6,0.2,0.9c0,0.1,0.1,0.2,0.1,0.4c0.1,0.3,0.2,0.6,0.2,0.9c0,0.1,0.1,0.2,0.1,0.3
	c0.1,0.3,0.2,0.6,0.4,0.9c0,0.1,0.1,0.2,0.1,0.2c0.1,0.3,0.3,0.6,0.5,0.9c0,0.1,0.1,0.1,0.1,0.2c0.2,0.3,0.4,0.6,0.6,0.9
	c0,0,0.1,0.1,0.1,0.1c0.2,0.3,0.5,0.6,0.8,0.9c0,0,0,0,0,0c0.3,0.3,0.6,0.6,0.9,0.9c0,0,0,0,0,0l0,0c2.2,1.9,5,3.1,8.2,3.1h33.7
	c4.3,0,7.7,3.5,7.7,7.7v0.8v0.8v4c0,4.3-3.5,7.7-7.7,7.7h-32.1c-4.3,0-7.7-3.5-7.7-7.7v0c0-0.9-0.7-1.6-1.6-1.6h-3
	c-0.9,0-1.6,0.7-1.6,1.6v0c0,7.7,6.3,14,14,14h32.1c7.7,0,14-6.3,14-14v-4v-0.8v-2.5c0-3.7-1.6-7-4.2-9.2c-0.2-0.2-0.5-0.4-0.7-0.6
	c-2.1-1.6-4.7-2.5-7.4-2.5h-33.7c-4.3,0-7.7-3.5-7.7-7.7v-0.8v-0.8v-3.2c0-4.3,3.5-7.7,7.7-7.7h32.1c4.3,0,7.7,3.5,7.7,7.7v0
	c0,0.9,0.7,1.6,1.6,1.6h3C292,186,292.7,185.2,292.7,184.3z"/>
<g>
	<path d="M120.7,224.2c-3.6,0-6.5-2.9-6.5-6.5v-45.6c0-1-0.8-1.8-1.8-1.8h-2.7c-1,0-1.8,0.8-1.8,1.8v45.6c0,7,5.7,12.7,12.7,12.7
		h40.1c1,0,1.9-0.8,1.9-1.9v-2.5c0-1-0.8-1.9-1.9-1.9H120.7z"/>
</g>
</svg>
